<svg width="260" height="257" viewBox="0 0 260 257" fill="none" xmlns="http://www.w3.org/2000/svg">
<g clip-path="url(#clip0_36_19519)">
<path fill-rule="evenodd" clip-rule="evenodd" d="M181.527 161.467C178.318 159.096 177.638 154.571 180.009 151.362C180.972 150.058 182.292 149.17 183.732 148.738C183.994 148.657 184.256 148.595 184.525 148.544L239.967 135.185C241.602 134.815 243.114 133.882 244.191 132.43L254.031 119.105C256.356 115.958 255.749 111.549 252.697 109.14L252.51 109.002L252.323 108.864L245.089 103.52L195.536 66.9134L167.569 46.2531L166.804 45.6874C165.156 44.6288 163.219 44.3192 161.414 44.6984L161.005 44.7956L126.918 53.0086L58.096 69.5902L57.5773 69.7123C56.0825 70.1334 54.712 71.0312 53.7186 72.376C52.7228 73.7239 52.2652 75.3008 52.3052 76.8557L52.3384 77.371L53.8049 101.056L58.8866 183.094L58.9055 183.348C59.0622 185.312 60.021 187.199 61.6954 188.489L61.8138 188.576L61.9319 188.664L80.5195 202.395L90.1728 209.526L129.169 238.335L147.037 251.535L147.156 251.622L147.274 251.709C150.436 253.949 154.809 253.292 157.174 250.222L157.261 250.103L157.348 249.985L170.549 232.117L190.609 204.962L203.809 187.094L203.896 186.976L203.984 186.857C206.224 183.695 205.566 179.322 202.496 176.957L202.378 176.87L202.26 176.783L181.527 161.467L181.527 161.467ZM192.347 116.227L136.328 129.722L136.277 129.733C134.737 130.111 133.309 130.995 132.269 132.344L132.182 132.463L132.094 132.581L122.539 145.515L122.452 145.634L122.365 145.752C120.125 148.914 120.784 153.284 123.854 155.649L123.973 155.736L124.091 155.823L160.88 183.001C160.917 183.029 160.958 183.059 160.999 183.089C161.036 183.116 161.076 183.146 161.117 183.176C164.187 185.54 164.844 189.914 162.604 193.076C162.574 193.116 162.544 193.157 162.517 193.194C162.487 193.235 162.457 193.275 162.429 193.312L151.131 208.607C151.101 208.647 151.074 208.684 151.044 208.725C151.014 208.765 150.986 208.803 150.956 208.843C148.592 211.913 144.219 212.571 141.056 210.331C141.016 210.301 140.975 210.271 140.938 210.243C140.898 210.213 140.857 210.184 140.82 210.156L90.4689 172.95C88.8469 171.752 87.8705 170.006 87.6095 168.157C87.5549 167.776 87.5273 167.39 87.5384 167.003L85.9761 141.852L83.391 100.115C83.3891 100.065 83.385 100.019 83.3837 99.9746C83.3054 98.3675 83.7589 96.7247 84.7914 95.327C85.7802 93.9885 87.1477 93.0885 88.634 92.6658C88.8149 92.6164 88.9964 92.5725 89.1765 92.5372L154.327 76.8423C154.494 76.7922 154.659 76.7507 154.825 76.7148C156.794 76.2779 158.933 76.6649 160.694 77.961L195.074 103.359C198.283 105.73 198.963 110.255 196.592 113.464C195.573 114.843 194.158 115.756 192.622 116.161C192.529 116.184 192.438 116.208 192.347 116.228L192.347 116.227Z" stroke="#79B6FB" stroke-width="1.5172" stroke-miterlimit="10"/>
</g>
<defs>
<clipPath id="clip0_36_19519">
<rect width="178.831" height="190.403" fill="white" transform="translate(0 143.838) rotate(-53.5452)"/>
</clipPath>
</defs>
</svg>
