<svg width="170" height="36" viewBox="0 0 170 36" fill="none" xmlns="http://www.w3.org/2000/svg">
<path d="M42.3242 27.6274H52.7023V25.5164H45.2101V14.7783H42.3242V27.6274Z" fill="#010135"/>
<path d="M70.0489 27.9214C73.7117 27.9214 75.8763 25.7553 75.8763 22.121V14.8154H72.9348V22.121C72.9348 24.0849 71.8619 25.2597 70.0489 25.2597C68.2175 25.2597 67.1446 24.0849 67.1446 22.121V14.8154H64.2031V22.121C64.2031 25.7553 66.3678 27.9214 70.0489 27.9214Z" fill="#010135"/>
<path d="M88.3047 20.3027V27.6269H91.2462V20.3027C91.2462 18.3388 92.3191 17.1822 94.1505 17.1822C95.9635 17.1822 97.0364 18.3384 97.0364 20.3027V27.6269H99.9779V20.3027C99.9779 16.6684 97.8136 14.5205 94.1505 14.5205C90.4689 14.5205 88.3047 16.668 88.3047 20.3027Z" fill="#010135"/>
<path d="M112.404 14.7783V27.6274H122.838V25.5164H115.346V22.2488H122.283V20.1382H115.346V16.8893H122.727V14.7783H112.404Z" fill="#010135"/>
<path d="M140.98 27.9214C144.606 27.9214 146.77 26.3061 146.77 23.5497C146.77 18.6698 138.057 21.5307 138.057 18.4312C138.057 17.4034 138.963 16.5957 140.869 16.5957C142.534 16.5957 143.588 17.5319 143.699 19.0735H146.641C146.53 16.1917 144.402 14.4844 140.924 14.4844C137.372 14.4844 135.264 15.9713 135.264 18.3392C135.264 24.0631 143.829 20.8173 143.829 23.8613C143.829 25.0757 142.756 25.8101 140.98 25.8101C139.352 25.8101 138.335 24.9655 138.205 23.5493H135.264C135.375 26.3057 137.521 27.921 140.98 27.921V27.9214Z" fill="#010135"/>
<path d="M170.001 14.7783H158.457V16.9995H162.767V27.6274H165.709V16.9995H170.001V14.7783Z" fill="#010135"/>
<path fill-rule="evenodd" clip-rule="evenodd" d="M17.4227 28.9684C17.4227 28.2259 18.029 27.624 18.7773 27.624C19.0812 27.624 19.3613 27.7233 19.5874 27.8906C19.6284 27.9209 19.6676 27.9535 19.7047 27.988L27.8951 34.8061C28.1325 35.0095 28.4419 35.1333 28.7802 35.1333H31.8852C32.619 35.1333 33.2163 34.5546 33.2394 33.8323V33.7888V33.7454V32.0722V20.613V14.1458V13.9688C33.2155 13.6055 33.0462 13.2814 32.7884 13.0536L32.7278 13.0031L27.6924 8.81069L17.5268 0.34659L17.4501 0.282939C17.2205 0.105568 16.9318 0 16.6185 0C16.3048 0 16.0158 0.105956 15.7861 0.283327L15.7122 0.345038L12.3041 3.18257L0.501067 13.0097L0.464298 13.0404C0.186189 13.281 0.00782306 13.6331 0 14.0262V14.0534V14.0806V18.3786V20.6111V29.629V33.7613V33.7885V33.8156C0.0144727 34.5368 0.600811 35.1178 1.32679 35.1321H1.35456H1.38194H5.54694H11.8754H16.0404H16.0678H16.0955C16.8219 35.1178 17.4079 34.5364 17.4223 33.8156V33.7885V33.7613L17.4227 28.9672V28.9684ZM25.4492 25.5863L17.1743 18.6968L17.1669 18.6906C16.9389 18.5016 16.6463 18.3856 16.3271 18.3794H16.2997H16.272H13.2577H13.2304H13.2026C12.4762 18.3937 11.8903 18.9755 11.8758 19.6959V19.723V19.7502V28.2582C11.8762 28.2671 11.8762 28.2764 11.8762 28.2857C11.8762 28.2946 11.8762 28.3036 11.8758 28.3129C11.8613 29.0336 11.2754 29.615 10.549 29.6294C10.5396 29.6294 10.5306 29.6294 10.5212 29.6294C10.5118 29.6294 10.5025 29.6294 10.4938 29.6294H6.92927C6.92067 29.6294 6.91128 29.6294 6.90189 29.6294C6.8925 29.6294 6.88351 29.6294 6.87451 29.6294C6.14814 29.615 5.56219 29.0332 5.54772 28.3129C5.54772 28.3036 5.54733 28.2946 5.54733 28.2857C5.54733 28.2764 5.54772 28.2671 5.54772 28.2582L5.54889 16.6134C5.54889 16.2385 5.70379 15.8997 5.95335 15.6556C6.00498 15.6055 6.06013 15.5589 6.11919 15.5174L9.73775 12.5044L15.7431 7.50428C15.7498 7.49884 15.7564 7.49341 15.7631 7.48798C15.9966 7.29857 16.295 7.18447 16.6205 7.18447C16.933 7.18447 17.2209 7.28965 17.4497 7.46585C17.4775 7.48759 17.5041 7.50971 17.5299 7.533L27.1534 15.5449C27.1793 15.5643 27.2039 15.5841 27.2281 15.6051C27.5129 15.8516 27.6928 16.2144 27.6936 16.6212V24.5714C27.6936 25.3139 27.0869 25.9155 26.3387 25.9155C26.0175 25.9155 25.7222 25.8045 25.4899 25.6193C25.4762 25.6085 25.4629 25.5972 25.4496 25.5856L25.4492 25.5863Z" fill="#276EE4"/>
</svg>
